<svg xmlns="http://www.w3.org/2000/svg" xmlns:xlink="http://www.w3.org/1999/xlink" width="35.013" height="43" viewBox="0 0 35.013 43">
  <defs>
    <clipPath id="clip-path">
      <rect id="Rectangle_8846" data-name="Rectangle 8846" width="35.013" height="43" fill="#909090"/>
    </clipPath>
  </defs>
  <g id="Group_25697" data-name="Group 25697" transform="translate(0 0)">
    <g id="Group_25696" data-name="Group 25696" transform="translate(0 0)" clip-path="url(#clip-path)">
      <g id="Group_25695" data-name="Group 25695" transform="translate(0 0)">
        <g id="Group_25694" data-name="Group 25694" transform="translate(0 0)" clip-path="url(#clip-path)">
          <path id="Path_45306" data-name="Path 45306" d="M29.241,22.847a9.734,9.734,0,0,1,4.649-8.183A10.046,10.046,0,0,0,26.024,10.4c-3.345-.341-6.532,1.971-8.232,1.971S13.473,10.45,10.7,10.5a10.525,10.525,0,0,0-8.9,5.39C-1.992,22.467.83,32.216,4.526,37.557c1.809,2.609,3.958,5.549,6.789,5.44,2.728-.109,3.755-1.764,7.046-1.764s4.219,1.764,7.1,1.71c2.93-.059,4.788-2.668,6.582-5.287a23.647,23.647,0,0,0,2.974-6.117,9.485,9.485,0,0,1-5.771-8.691M23.83,6.868A9.467,9.467,0,0,0,26.069,0a9.639,9.639,0,0,0-6.334,3.261,8.988,8.988,0,0,0-2.278,6.651,7.988,7.988,0,0,0,6.374-3.044" transform="translate(0 0)" fill="#909090"/>
        </g>
      </g>
    </g>
  </g>
</svg>
