<svg id="Group_25699" data-name="Group 25699" xmlns="http://www.w3.org/2000/svg" xmlns:xlink="http://www.w3.org/1999/xlink" width="134" height="76.342" viewBox="0 0 134 76.342">
  <defs>
    <clipPath id="clip-path">
      <rect id="Rectangle_8850" data-name="Rectangle 8850" width="134" height="76.342" fill="#02a2fd"/>
    </clipPath>
  </defs>
  <g id="Group_25698" data-name="Group 25698" transform="translate(0 0)" clip-path="url(#clip-path)">
    <path id="Path_45307" data-name="Path 45307" d="M334.261,866.536a9.587,9.587,0,0,0-4.612-1.16,5.8,5.8,0,1,0,0,11.6,9.715,9.715,0,0,0,4.612-1.153v5.831a17.6,17.6,0,0,1-5,.773c-6.167,0-11.579-4.251-11.579-11.253,0-6.486,4.9-11.244,11.579-11.244a16.677,16.677,0,0,1,5,.78Zm-57.226,0a9.523,9.523,0,0,0-4.605-1.16,5.8,5.8,0,1,0,0,11.6,9.65,9.65,0,0,0,4.605-1.153v5.831a17.5,17.5,0,0,1-5,.773c-6.161,0-11.567-4.251-11.567-11.253,0-6.486,4.9-11.244,11.569-11.244a16.612,16.612,0,0,1,5,.78Zm74.472-1.078a5.716,5.716,0,1,0,5.672,5.713,5.615,5.615,0,0,0-5.672-5.713m11.481,5.713a11.48,11.48,0,1,1-11.481-11.246,11.155,11.155,0,0,1,11.481,11.246m-52.143-5.922a18.756,18.756,0,0,0-4.286-.663c-2.2,0-3.392.736-3.392,1.78,0,1.323,1.612,1.785,2.513,2.07l1.513.481c3.56,1.132,5.18,3.569,5.18,6.215,0,5.458-4.8,7.292-9,7.292a32.906,32.906,0,0,1-5.917-.594v-5a20.541,20.541,0,0,0,5.177.809c2.728,0,3.982-.8,3.982-2.028,0-1.1-1.085-1.736-2.445-2.164-.33-.111-.83-.267-1.17-.379-3.053-.966-5.6-2.761-5.6-6.356,0-4.064,3.042-6.792,8.1-6.792a23.469,23.469,0,0,1,5.343.691v4.638Z" transform="translate(-246.503 -813.819)" fill="#02a2fd"/>
    <path id="Path_45308" data-name="Path 45308" d="M55.912,70.859a2.722,2.722,0,0,0-5.444,0v5.7a2.723,2.723,0,0,0,5.444,0Zm14.95-7.485a2.722,2.722,0,1,0-5.444,0V76.561a2.722,2.722,0,1,0,5.444,0V63.374ZM85.814,53.131a2.722,2.722,0,0,0-5.444,0v28.85a2.723,2.723,0,0,0,5.444,0Zm14.95,10.242a2.722,2.722,0,1,0-5.444,0V76.561a2.722,2.722,0,1,0,5.444,0V63.374ZM115.7,70.859a2.713,2.713,0,0,0-5.427,0v5.7a2.713,2.713,0,1,0,5.427,0Zm14.957-7.485a2.714,2.714,0,0,0-5.427,0V76.561a2.713,2.713,0,1,0,5.427,0V63.374Zm14.961-10.242a2.713,2.713,0,1,0-5.427,0v28.85a2.716,2.716,0,0,0,5.427.238q.005-.119,0-.238Zm14.957,10.242a2.73,2.73,0,0,0-5.46,0V76.561a2.73,2.73,0,0,0,5.46,0V63.374ZM175.5,70.859a2.716,2.716,0,1,0-5.432,0v5.7a2.715,2.715,0,1,0,5.43,0v-5.7Z" transform="translate(-47.762 -47.715)" fill="#02a2fd"/>
    <path id="Path_45309" data-name="Path 45309" d="M2282.893,1219.084v.34h-.969v2.52h-.4v-2.518h-.972v-.342Zm.2,0h.623l.856,2.346h.014l.828-2.344h.611v2.858h-.408V1219.6h-.014l-.868,2.344h-.377l-.847-2.344h-.019v2.344h-.4v-2.86Z" transform="translate(-2158.289 -1153.728)" fill="#02a2fd"/>
  </g>
</svg>
