<svg xmlns="http://www.w3.org/2000/svg" xmlns:xlink="http://www.w3.org/1999/xlink" width="252.176" height="78.383" viewBox="0 0 252.176 78.383">
  <defs>
    <clipPath id="clip-path">
      <rect id="Rectangle_9764" data-name="Rectangle 9764" width="252.176" height="78.383" fill="#017"/>
    </clipPath>
  </defs>
  <g id="Group_27650" data-name="Group 27650" transform="translate(-1162.453 -273.207)">
    <rect id="Rectangle_8988" data-name="Rectangle 8988" width="6.397" height="37.981" transform="translate(1202.725 304.422)" fill="#017"/>
    <g id="Group_27596" data-name="Group 27596" transform="translate(1162.453 273.207)">
      <g id="Group_27595" data-name="Group 27595" clip-path="url(#clip-path)">
        <path id="Path_56835" data-name="Path 56835" d="M128.638,96.856c0,3.886-4.054,7.05-9.034,7.05a6.98,6.98,0,0,1-4.537-1.378c-1.323-1.068-1.689-2.05-1.689-4.568V80.518H107.01V98.346c0,4.171.748,6.379,2.762,8.159a13.1,13.1,0,0,0,8.779,2.94,13.343,13.343,0,0,0,10.082-3.917v3.2H135V80.518h-6.368V96.856Z" transform="translate(-52.579 -39.562)" fill="#017"/>
        <path id="Path_56836" data-name="Path 56836" d="M189.123,79.1c-9.263,0-15.733,6.155-15.733,14.96s6.277,14.685,15.621,14.685c7.462,0,12.447-3.113,15.25-9.517l.31-.712h-6.908l-.132.315c-1.287,3.088-3.988,4.649-8.027,4.649-5.382,0-9.1-2.848-9.848-7.477h25.138v-.509a19.41,19.41,0,0,0-1.363-7.971c-2.177-5.275-7.528-8.423-14.314-8.423Zm-9.2,11.694c1.343-4.191,4.568-6.485,9.141-6.485s7.8,2.355,9.09,6.485Z" transform="translate(-85.194 -38.864)" fill="#017"/>
        <rect id="Rectangle_9762" data-name="Rectangle 9762" width="6.368" height="37.808" transform="translate(166.854 31.353)" fill="#017"/>
        <rect id="Rectangle_9763" data-name="Rectangle 9763" width="6.368" height="37.808" transform="translate(180.369 31.353)" fill="#017"/>
        <path id="Path_56837" data-name="Path 56837" d="M399.378,80.508l-8.769,21.252-8.978-21.252H374.21l13.052,28.124c-.87,2.665-2.274,3.759-4.807,3.759a17.175,17.175,0,0,1-3.606-.376l-.6-.107v5.5l.412.081a18.355,18.355,0,0,0,3.9.453c5.382,0,7.782-1.734,10.28-7.411L406.52,80.518h-7.142Z" transform="translate(-183.866 -39.557)" fill="#017"/>
        <path id="Path_56838" data-name="Path 56838" d="M29.288,79.237a8.293,8.293,0,0,0,3.993-7.492c0-3.957-1.846-7.284-4.817-8.683-2.386-1.109-4.552-1.424-9.644-1.424H0V99.446H19.1c5.3,0,7.406-.305,9.8-1.419,3.606-1.546,5.936-5.432,5.936-9.9a9.281,9.281,0,0,0-5.539-8.891ZM6.694,82.732H21.023c2.681,0,4.044.305,5.209,1.165a5.787,5.787,0,0,1,0,8.561c-1.17.865-2.533,1.17-5.214,1.17H6.689v-10.9Zm0-15.28H20.2c4.608,0,6.663,1.46,6.663,4.731s-2.055,4.73-6.663,4.73H6.694Z" transform="translate(0 -30.285)" fill="#017"/>
        <path id="Path_56839" data-name="Path 56839" d="M268.9,61.638h-7.045L249.78,87.422h23.673L278.9,99.446h7.579Zm-3.306,8.1,5.488,12.477H259.938Z" transform="translate(-122.728 -30.285)" fill="#017"/>
        <path id="Path_56840" data-name="Path 56840" d="M251.191,117.268l-4.313,9.512H239.1l1.1-2.429A12.067,12.067,0,0,1,251.191,117.268Z" transform="translate(-117.48 -57.619)" fill="#017"/>
        <path id="Path_56841" data-name="Path 56841" d="M476.5,33.04l-7.746,14.475-12.2-.8,1.979-3.7A18.969,18.969,0,0,1,476.5,33.04" transform="translate(-224.327 -16.214)" fill="#02a2fd"/>
        <path id="Path_56842" data-name="Path 56842" d="M436.932,41.61l-8.663-13.946L435.062,17.5l2.213,3.562a18.968,18.968,0,0,1-.343,20.549" transform="translate(-210.427 -8.598)" fill="#02a2fd"/>
        <path id="Path_56843" data-name="Path 56843" d="M442.978,4.77l16.409-.53,5.406,10.966-4.19.135A18.968,18.968,0,0,1,442.978,4.77" transform="translate(-217.655 -2.083)" fill="#02a2fd"/>
      </g>
    </g>
  </g>
</svg>
