<svg id="Group_27417" data-name="Group 27417" xmlns="http://www.w3.org/2000/svg" xmlns:xlink="http://www.w3.org/1999/xlink" width="224.736" height="69.854" viewBox="0 0 224.736 69.854">
  <defs>
    <clipPath id="clip-path">
      <rect id="Rectangle_9717" data-name="Rectangle 9717" width="224.736" height="69.854" fill="#fff"/>
    </clipPath>
  </defs>
  <rect id="Rectangle_9714" data-name="Rectangle 9714" width="5.675" height="33.694" transform="translate(36.473 27.941)" fill="#fff"/>
  <g id="Group_27416" data-name="Group 27416">
    <g id="Group_27415" data-name="Group 27415" clip-path="url(#clip-path)">
      <path id="Path_56821" data-name="Path 56821" d="M126.285,95.078c0,3.463-3.613,6.283-8.051,6.283a6.22,6.22,0,0,1-4.044-1.228c-1.179-.952-1.5-1.827-1.5-4.071V80.518H107.01V96.406c0,3.717.666,5.684,2.461,7.271a11.673,11.673,0,0,0,7.824,2.62,11.891,11.891,0,0,0,8.985-3.49v2.851h5.675V80.518H126.28v14.56Z" transform="translate(-58.502 -44.019)" fill="#fff"/>
      <path id="Path_56822" data-name="Path 56822" d="M187.411,79.1c-8.255,0-14.021,5.485-14.021,13.332s5.594,13.087,13.921,13.087c6.65,0,11.092-2.774,13.59-8.481l.277-.635h-6.156l-.118.281c-1.147,2.752-3.554,4.143-7.153,4.143-4.8,0-8.114-2.539-8.776-6.664h22.4v-.453a17.3,17.3,0,0,0-1.215-7.1c-1.94-4.7-6.709-7.507-12.756-7.507Zm-8.2,10.422c1.2-3.735,4.071-5.78,8.146-5.78a7.906,7.906,0,0,1,8.1,5.78Z" transform="translate(-94.791 -43.242)" fill="#fff"/>
      <rect id="Rectangle_9715" data-name="Rectangle 9715" width="5.675" height="33.694" transform="translate(148.699 27.941)" fill="#fff"/>
      <rect id="Rectangle_9716" data-name="Rectangle 9716" width="5.675" height="33.694" transform="translate(160.743 27.941)" fill="#fff"/>
      <path id="Path_56823" data-name="Path 56823" d="M396.64,80.508l-7.815,18.939-8-18.939H374.21l11.632,25.063c-.775,2.375-2.026,3.35-4.284,3.35a15.307,15.307,0,0,1-3.214-.335l-.535-.1v4.9l.367.073a16.359,16.359,0,0,0,3.477.4c4.8,0,6.936-1.546,9.161-6.6L403,80.517H396.64Z" transform="translate(-204.578 -44.013)" fill="#fff"/>
      <path id="Path_56824" data-name="Path 56824" d="M26.1,77.322a7.391,7.391,0,0,0,3.558-6.677c0-3.527-1.646-6.491-4.293-7.738-2.126-.988-4.057-1.269-8.595-1.269H0V95.332H17.022c4.719,0,6.6-.272,8.731-1.265a9.368,9.368,0,0,0,5.29-8.821,8.271,8.271,0,0,0-4.937-7.924ZM5.966,80.437h12.77c2.389,0,3.6.272,4.642,1.038a5.158,5.158,0,0,1,0,7.629c-1.043.771-2.257,1.043-4.646,1.043H5.961v-9.71Zm0-13.617H18c4.107,0,5.938,1.3,5.938,4.216S22.108,75.251,18,75.251H5.966Z" transform="translate(0 -33.697)" fill="#fff"/>
      <path id="Path_56825" data-name="Path 56825" d="M266.82,61.638h-6.278L249.78,84.616h21.1l4.85,10.716h6.754Zm-2.947,7.217,4.891,11.12h-9.932Z" transform="translate(-136.553 -33.697)" fill="#fff"/>
      <path id="Path_56826" data-name="Path 56826" d="M249.875,117.268l-3.844,8.477H239.1l.981-2.165A10.754,10.754,0,0,1,249.875,117.268Z" transform="translate(-130.714 -64.109)" fill="#fff"/>
      <path id="Path_56827" data-name="Path 56827" d="M474.333,33.036l-6.9,12.9-10.873-.714,1.763-3.294a16.9,16.9,0,0,1,16.013-8.892" transform="translate(-249.596 -18.041)" fill="#fff"/>
      <path id="Path_56828" data-name="Path 56828" d="M435.989,38.986l-7.72-12.428,6.054-9.059,1.972,3.174a16.9,16.9,0,0,1-.306,18.313" transform="translate(-234.131 -9.567)" fill="#fff"/>
      <path id="Path_56829" data-name="Path 56829" d="M442.978,4.712,457.6,4.24l4.818,9.773-3.734.121a16.9,16.9,0,0,1-15.707-9.421" transform="translate(-242.173 -2.318)" fill="#fff"/>
    </g>
  </g>
</svg>
