<svg xmlns="http://www.w3.org/2000/svg" xmlns:xlink="http://www.w3.org/1999/xlink" width="56.556" height="62.282" viewBox="0 0 56.556 62.282">
  <defs>
    <linearGradient id="linear-gradient" x1="-0.055" y1="0.634" x2="1.107" y2="0.658" gradientUnits="objectBoundingBox">
      <stop offset="0" stop-color="#017"/>
      <stop offset="1" stop-color="#02a2fd"/>
    </linearGradient>
    <clipPath id="clip-path">
      <rect id="Rectangle_9471" data-name="Rectangle 9471" width="56.556" height="62.282" stroke="rgba(0,0,0,0)" stroke-width="1" fill="url(#linear-gradient)"/>
    </clipPath>
  </defs>
  <g id="Group_27233" data-name="Group 27233" transform="translate(0 0)">
    <g id="Group_27233-2" data-name="Group 27233" transform="translate(0 0)" clip-path="url(#clip-path)">
      <path id="Path_56697" data-name="Path 56697" d="M39.134,62.279H23.127A6.662,6.662,0,0,1,17.927,60,3.755,3.755,0,0,0,15,58.543H13.476a.913.913,0,0,1-.913-.912V40.516a.912.912,0,0,1,.912-.912h1.992a4.985,4.985,0,0,0,3.473-1.4L20.92,36.3a9.727,9.727,0,0,0,2.853-6.437l.055-.44a4,4,0,0,1,7.957.523l.005,1.123a17.341,17.341,0,0,1-.717,6.21l-.75,2.294h10.21A3.516,3.516,0,0,1,42.8,45.787q.042.04.083.083a3.5,3.5,0,0,1-.567,5.37,3.482,3.482,0,0,1-.6,5.137,3.514,3.514,0,0,1-2.579,5.9M15,56.718a5.514,5.514,0,0,1,4.2,1.972,4.865,4.865,0,0,0,3.928,1.764v.912l.008-.912h16a1.694,1.694,0,1,0,0-3.388.912.912,0,0,1,0-1.825h.459a1.743,1.743,0,0,0,1.759-1.635,1.693,1.693,0,0,0-1.692-1.752.912.912,0,1,1,0-1.825h.634a1.743,1.743,0,0,0,1.759-1.636,1.74,1.74,0,0,0-1.731-1.789.912.912,0,0,1-.021-1.824h.229a1.693,1.693,0,1,0,0-3.386H29.669a1.357,1.357,0,0,1-1.29-1.779l.951-2.906a15.726,15.726,0,0,0,.626-5.629l-.005-1.136a2.171,2.171,0,0,0-4.323-.284l-.053.421a11.475,11.475,0,0,1-3.4,7.532L20.2,39.519a6.8,6.8,0,0,1-4.741,1.912h-1.08V56.72Zm24.37.349h-3.2a.912.912,0,1,1,0-1.825h3.2a.912.912,0,1,1,0,1.825m.068-5.212H36.175a.912.912,0,1,1,0-1.825h3.265a.912.912,0,0,1,0,1.825m.881-5.251H36.176a.912.912,0,0,1,0-1.825H40.32a.912.912,0,0,1,0,1.825M48.552,8.362a1.511,1.511,0,0,1,1.363.847l1.651,3.344,3.691.535a1.522,1.522,0,0,1,.841,2.592l-2.671,2.6.63,3.676a1.521,1.521,0,0,1-1.5,1.778,1.53,1.53,0,0,1-.707-.176l-3.3-1.735-3.3,1.736a1.515,1.515,0,0,1-1.871-.368,1.513,1.513,0,0,1-.333-1.234l.631-3.676L41,15.682a1.522,1.522,0,0,1,.841-2.593l3.691-.535,1.65-3.344a1.51,1.51,0,0,1,1.366-.847m5.831,6.445-3.239-.47A1.519,1.519,0,0,1,50,13.5l-1.448-2.934L47.1,13.5a1.52,1.52,0,0,1-1.147.831l-3.239.47,2.343,2.284a1.522,1.522,0,0,1,.437,1.345l-.553,3.226,2.9-1.523a1.545,1.545,0,0,1,1.415,0l2.9,1.523L51.6,18.436a1.517,1.517,0,0,1,.437-1.345ZM8.075,8.362a1.511,1.511,0,0,1,1.363.847l1.65,3.344,3.691.535a1.522,1.522,0,0,1,.841,2.593l-2.67,2.6.631,3.676a1.521,1.521,0,0,1-1.5,1.778,1.53,1.53,0,0,1-.707-.176l-3.3-1.735-3.3,1.736A1.515,1.515,0,0,1,2.9,23.193a1.513,1.513,0,0,1-.334-1.234L3.2,18.283l-2.671-2.6a1.522,1.522,0,0,1,.841-2.593l3.691-.535L6.71,9.21a1.511,1.511,0,0,1,1.366-.848m5.831,6.445-3.239-.47A1.519,1.519,0,0,1,9.521,13.5L8.072,10.571,6.624,13.5a1.52,1.52,0,0,1-1.147.831l-3.239.47,2.343,2.284a1.522,1.522,0,0,1,.437,1.345l-.553,3.226,2.9-1.523a1.545,1.545,0,0,1,1.415,0l2.9,1.523-.553-3.226a1.519,1.519,0,0,1,.437-1.346ZM12.129,60.416H9.323a.912.912,0,1,1,0-1.825h2.806a.437.437,0,0,0,.436-.436V40.327a.437.437,0,0,0-.436-.436H2.26a.437.437,0,0,0-.436.436V58.155a.437.437,0,0,0,.436.436H5.065a.912.912,0,1,1,0,1.825H2.26A2.263,2.263,0,0,1,0,58.155V40.327a2.263,2.263,0,0,1,2.261-2.261H12.13a2.263,2.263,0,0,1,2.26,2.261V58.155a2.263,2.263,0,0,1-2.261,2.26M34.8,23.74a1.891,1.891,0,0,1-.883-.219l-5.567-2.927L22.714,23.52a1.9,1.9,0,0,1-2.75-2l1.063-6.2L16.5,10.872a1.9,1.9,0,0,1,1.05-3.232l6.224-.9,2.836-5.679a1.9,1.9,0,0,1,3.4,0L32.795,6.7l6.277.943a1.9,1.9,0,0,1,1.05,3.232l-3.23,3.148a.912.912,0,0,1-1.273-1.307l3.23-3.148.093-1.022-.132.9-6.224-.9A1.894,1.894,0,0,1,31.158,7.5l-2.784-5.64h-.125L25.466,7.5A1.9,1.9,0,0,1,24.039,8.54l-6.224.9-.039.119,4.5,4.39a1.894,1.894,0,0,1,.545,1.677l-1.063,6.2.526.882-.424-.808,5.567-2.927a1.893,1.893,0,0,1,1.763,0L34.761,21.9l.1-.076-.7-4.053a.912.912,0,1,1,1.8-.309l.7,4.053A1.907,1.907,0,0,1,34.8,23.74" transform="translate(0 0)" fill="url(#linear-gradient)"/>
      <path id="Path_56697_-_Outline" data-name="Path 56697 - Outline" d="M22.945,62.782a7.16,7.16,0,0,1-5.38-2.434A3.265,3.265,0,0,0,15,59.043h-.257a2.757,2.757,0,0,1-2.615,1.873H9.323a1.412,1.412,0,1,1,0-2.825h2.742v-.38c0-.027,0-.054,0-.081V40.516c0-.027,0-.054,0-.081v-.044H2.324v17.7H5.065a1.412,1.412,0,0,1,0,2.825H2.26A2.768,2.768,0,0,1-.5,58.156V40.327a2.768,2.768,0,0,1,2.76-2.761h9.87A2.763,2.763,0,0,1,14.6,39.1h.871a4.463,4.463,0,0,0,3.116-1.26l1.977-1.9a9.2,9.2,0,0,0,2.7-6.1l0-.039.055-.44a4.5,4.5,0,0,1,8.953.585l.005,1.106a17.777,17.777,0,0,1-.738,6.374l0,.009-.536,1.639h9.521a4.017,4.017,0,0,1,2.96,6.74,3.991,3.991,0,0,1-.483,5.521,3.981,3.981,0,0,1-.6,5.115,4.015,4.015,0,0,1-3.279,6.331h-16ZM14.89,58.043H15a4.245,4.245,0,0,1,3.271,1.6l.031.032a6.161,6.161,0,0,0,4.81,2.106H39.134a3.029,3.029,0,0,0,3.015-3.016,3,3,0,0,0-.8-2.046l-.386-.416.462-.331a2.982,2.982,0,0,0,.512-4.4l-.378-.43.477-.316a3,3,0,0,0,.486-4.6l-.006-.006q-.031-.032-.063-.063l-.409-.387.432-.361a3.016,3.016,0,0,0-1.939-5.332h-10.9l.963-2.945a16.781,16.781,0,0,0,.694-6.027V31.07l-.005-1.123a3.5,3.5,0,0,0-6.961-.459l-.052.416a10.2,10.2,0,0,1-3,6.748l-.006.006-1.98,1.906a5.457,5.457,0,0,1-3.811,1.54h-.595q.009.11.009.222v.6h.579a6.269,6.269,0,0,0,4.379-1.771l1.978-1.9a10.954,10.954,0,0,0,3.249-7.2l0-.034.053-.421a2.671,2.671,0,0,1,5.319.346l.005,1.118a16.169,16.169,0,0,1-.647,5.792l0,.012-.951,2.906A.857.857,0,0,0,29.67,40.9H40.528a2.191,2.191,0,0,1,1.036,4.125,1.416,1.416,0,0,1-.053,1.431,2.247,2.247,0,0,1,1.041,1.96v.013a2.248,2.248,0,0,1-1.777,2.058,1.414,1.414,0,0,1-.09,1.126,2.194,2.194,0,0,1,1.167,2.017v.012A2.246,2.246,0,0,1,40.623,55.5a1.41,1.41,0,0,1-.14,1.524,2.2,2.2,0,0,1-1.348,3.929h-15.5l0,.417-1,0v-.419a5.346,5.346,0,0,1-3.814-1.939A5,5,0,0,0,15,57.218H14.89Zm8.737,1.912H39.134a1.194,1.194,0,0,0,.042-2.387h-3a1.412,1.412,0,1,1,0-2.825h3.439a1.244,1.244,0,0,0,1.239-1.16,1.193,1.193,0,0,0-1.187-1.227H39.66c-.035,0-.07,0-.105,0s-.077,0-.115,0H36.175a1.412,1.412,0,1,1,0-2.825h3.265c.035,0,.07,0,.105,0s.077,0,.115,0h.653a1.245,1.245,0,0,0,1.24-1.16,1.22,1.22,0,0,0-.346-.885l0,0a1.225,1.225,0,0,0-.881-.376H36.176a1.412,1.412,0,0,1,0-2.825h4.355a1.193,1.193,0,1,0,0-2.386H29.669A1.857,1.857,0,0,1,27.9,39.461l.95-2.9a15.172,15.172,0,0,0,.6-5.445v-.033l-.005-1.136a1.671,1.671,0,0,0-3.327-.22l-.05.4a11.952,11.952,0,0,1-3.546,7.842l0,0-1.98,1.906a7.264,7.264,0,0,1-5.073,2.052H14.89V56.218H15a6.006,6.006,0,0,1,4.582,2.151,4.352,4.352,0,0,0,3.2,1.585h.337l.509-.019Zm-14.3-.864a.412.412,0,1,0,0,.825h2.805a1.76,1.76,0,0,0,1.522-.873h-.175a1.423,1.423,0,0,1-.718-.2.933.933,0,0,1-.627.245ZM2.261,38.566A1.766,1.766,0,0,0,.5,40.327V58.155a1.766,1.766,0,0,0,1.76,1.761H5.065a.412.412,0,0,0,0-.825H2.26a.94.94,0,0,1-.936-.934V40.327a.94.94,0,0,1,.934-.936h9.871a.933.933,0,0,1,.391.087,1.41,1.41,0,0,1,.878-.372,1.763,1.763,0,0,0-1.269-.54Zm10.8,19.108a.413.413,0,0,0,.411.369h.415v-.822h-.015V40.931h.015v-.6a1.781,1.781,0,0,0-.014-.223h-.4a.413.413,0,0,0-.41.368Zm26.126-1.106h.18a.412.412,0,1,0,0-.825h-.263a.412.412,0,0,0,.026.824Zm-3.016-.825a.412.412,0,1,0,0,.825h1.609a1.424,1.424,0,0,1,0-.825Zm0-5.212a.412.412,0,1,0,0,.825h2.134a1.416,1.416,0,0,1,0-.825Zm3.373.014a.413.413,0,1,0,.3.4A.413.413,0,0,0,39.548,50.546Zm-3.373-5.265a.412.412,0,0,0,0,.825h2.792a1.4,1.4,0,0,1,0-.825Zm4.13,0a.41.41,0,0,0-.4.413.419.419,0,0,0,.417.411.412.412,0,0,0,.025-.824ZM21.831,24.24a2.37,2.37,0,0,1-1.409-.461,2.4,2.4,0,0,1-.951-2.343L20.49,15.5l-4.338-4.269a2.4,2.4,0,0,1,1.331-4.084l5.963-.867L26.166.833A2.4,2.4,0,0,1,28.3-.5h.016A2.4,2.4,0,0,1,30.46.836l2.667,5.4,6.018.9a2.4,2.4,0,0,1,1.323,4.087L37.24,14.378a1.412,1.412,0,1,1-1.971-2.023l2.606-2.54-5.362-.779a2.394,2.394,0,0,1-1.8-1.311l-2.4-4.858-2.4,4.858a2.394,2.394,0,0,1-1.8,1.31l-5.362.779L22.628,13.6a2.393,2.393,0,0,1,.689,2.12L22.4,21.056l4.8-2.521a2.393,2.393,0,0,1,2.229,0l4.8,2.521-.548-3.2a1.412,1.412,0,0,1,1.153-1.631,1.411,1.411,0,0,1,1.631,1.153l.7,4.053a2.393,2.393,0,0,1-3.475,2.529l-5.335-2.8-5.4,2.806A2.384,2.384,0,0,1,21.831,24.24ZM28.3.5a1.392,1.392,0,0,0-1.242.776L24.107,7.192l-6.483.942a1.4,1.4,0,0,0-.774,2.378l4.714,4.639-1.107,6.456a1.393,1.393,0,0,0,2.023,1.471l5.868-3.049,5.8,3.048a1.4,1.4,0,0,0,.651.162,1.377,1.377,0,0,0,.814-.271l0,0a1.391,1.391,0,0,0,.554-1.361l-.7-4.055a.411.411,0,0,0-.405-.343.418.418,0,0,0-.071.006.412.412,0,0,0-.337.476l.747,4.354-.6.45L28.961,19.42a1.393,1.393,0,0,0-1.3,0l-5.125,2.694.192.365-.872.489-.621-1.04.018-.1-.067-.128.1-.052,1.045-6.1a1.394,1.394,0,0,0-.4-1.234L17.2,9.7l.232-.71,6.531-.949a1.4,1.4,0,0,0,1.051-.763l2.921-5.918h.747l2.921,5.918a1.394,1.394,0,0,0,1.05.763l5.73.833.059-.408.993.117L39.33,9.793l-.077.075-.021.144L39.122,10l-3.155,3.075a.412.412,0,1,0,.575.591l3.23-3.148A1.4,1.4,0,0,0,39,8.134l-6.54-.982-2.9-5.874A1.393,1.393,0,0,0,28.32.5H28.3ZM4.068,24.237h0a2.022,2.022,0,0,1-1.99-2.364l.586-3.416L.179,16.041A2.022,2.022,0,0,1,1.3,12.595l3.43-.5L6.261,8.989A2.023,2.023,0,0,1,8.067,7.862h.014A2.022,2.022,0,0,1,9.887,8.99L11.42,12.1l3.431.5a2.022,2.022,0,0,1,1.117,3.447l-2.481,2.416.586,3.417a2.021,2.021,0,0,1-1.991,2.363,2.039,2.039,0,0,1-.94-.233L8.075,22.39,5.006,24A2.037,2.037,0,0,1,4.068,24.237Zm4-15.375a1.017,1.017,0,0,0-.908.567L5.391,13.011l-3.951.573a1.017,1.017,0,0,0-.819.692l0,0a1.015,1.015,0,0,0,.256,1.042l2.861,2.784-.675,3.935a1.022,1.022,0,0,0,1,1.193,1.033,1.033,0,0,0,.475-.118L8.075,21.26l3.534,1.857a1.033,1.033,0,0,0,.476.118,1.021,1.021,0,0,0,1-1.192l-.676-3.936,2.859-2.784a1.015,1.015,0,0,0,.256-1.043l0,0a1.016,1.016,0,0,0-.819-.692l-3.952-.573L8.99,9.431a1.017,1.017,0,0,0-.908-.569H8.067ZM44.542,24.236h0a2.021,2.021,0,0,1-1.989-2.363l.586-3.416L40.655,16.04a2.022,2.022,0,0,1,1.119-3.446l3.43-.5,1.534-3.108a2.022,2.022,0,0,1,1.806-1.126h.014A2.022,2.022,0,0,1,50.364,8.99L51.9,12.1l3.43.5a2.022,2.022,0,0,1,1.117,3.446l-2.482,2.416.586,3.417a2.021,2.021,0,0,1-1.991,2.362,2.039,2.039,0,0,1-.94-.233L48.55,22.389,45.481,24A2.037,2.037,0,0,1,44.542,24.236Zm4-15.374a1.017,1.017,0,0,0-.908.567l-1.768,3.582-3.951.573a1.017,1.017,0,0,0-.819.692l0,0a1.015,1.015,0,0,0,.256,1.042l2.86,2.784-.675,3.935a1.021,1.021,0,0,0,1,1.193,1.033,1.033,0,0,0,.475-.118l3.534-1.858,3.534,1.857a1.033,1.033,0,0,0,.476.118,1.021,1.021,0,0,0,1-1.192l-.675-3.936,2.86-2.784a1.022,1.022,0,0,0-.563-1.739l-3.952-.573-1.767-3.58a1.017,1.017,0,0,0-.908-.569h-.014ZM44.278,22.575,45,18.351a1.022,1.022,0,0,0-.294-.9L41.64,14.457l4.241-.616a1.02,1.02,0,0,0,.771-.558l1.9-3.842,1.9,3.843a1.019,1.019,0,0,0,.77.558l4.244.616-3.075,2.991a1.017,1.017,0,0,0-.293.9l.724,4.224-3.793-1.994a1.045,1.045,0,0,0-.953,0Zm4.268-3.108a2.053,2.053,0,0,1,.936.227l2,1.053L51.1,18.52a2.016,2.016,0,0,1,.582-1.788l1.62-1.576-2.234-.324a2.018,2.018,0,0,1-1.524-1.106l-1-2.026-1,2.026a2.019,2.019,0,0,1-1.524,1.1l-2.235.325,1.618,1.577a2.023,2.023,0,0,1,.581,1.787l-.382,2.228,2-1.051A2.056,2.056,0,0,1,48.546,19.467ZM12.338,22.575,8.545,20.581a1.045,1.045,0,0,0-.953,0L3.8,22.575l.724-4.224a1.022,1.022,0,0,0-.294-.9L1.164,14.457l4.241-.616a1.02,1.02,0,0,0,.771-.558l1.9-3.842,1.9,3.843a1.019,1.019,0,0,0,.77.558l4.244.616-3.075,2.99a1.019,1.019,0,0,0-.293.9ZM8.07,19.467a2.053,2.053,0,0,1,.936.227l2,1.053-.382-2.227a2.019,2.019,0,0,1,.581-1.788l1.62-1.576L10.6,14.832a2.018,2.018,0,0,1-1.524-1.106l-1-2.026-1,2.026a2.019,2.019,0,0,1-1.524,1.1l-2.235.325L4.93,16.733a2.023,2.023,0,0,1,.581,1.787L5.13,20.748l2-1.051A2.056,2.056,0,0,1,8.07,19.467Z" transform="translate(0 0)" fill="rgba(0,0,0,0)"/>
    </g>
  </g>
</svg>
