<svg xmlns="http://www.w3.org/2000/svg" xmlns:xlink="http://www.w3.org/1999/xlink" width="51.595" height="62.28" viewBox="0 0 51.595 62.28">
  <defs>
    <linearGradient id="linear-gradient" x1="-0.458" y1="0.403" x2="2.001" y2="0.416" gradientUnits="objectBoundingBox">
      <stop offset="0" stop-color="#017"/>
      <stop offset="1" stop-color="#02a2fd"/>
    </linearGradient>
  </defs>
  <g id="hand-up" transform="translate(-43.904 0.001)">
    <path id="Path_56698" data-name="Path 56698" d="M174.365,17.039a5.717,5.717,0,0,0-5.5,3.35l-1.858,4.187a3.191,3.191,0,0,1-.712.985V6.588a3.368,3.368,0,0,0-4.822-3.023,3.332,3.332,0,1,0-6.647,0A3.369,3.369,0,0,0,150,6.588V9.347a3.369,3.369,0,0,0-4.821,3.023v3.991a.913.913,0,0,0,1.825,0V12.369a1.554,1.554,0,0,1,1.527-1.557A1.5,1.5,0,0,1,150,12.306v9.918a.913.913,0,0,0,1.825,0V6.588a1.555,1.555,0,0,1,1.527-1.557,1.5,1.5,0,0,1,1.469,1.494v13.4a.913.913,0,0,0,1.825,0V3.3A1.5,1.5,0,0,1,158.12,1.8a1.556,1.556,0,0,1,1.527,1.557V19.928a.913.913,0,0,0,1.825,0V6.525a1.5,1.5,0,0,1,1.469-1.494,1.555,1.555,0,0,1,1.527,1.557V26.2a9.3,9.3,0,0,0-7.222,7.7.913.913,0,0,0,1.795.332,7.636,7.636,0,0,1,6.507-6.386,4.142,4.142,0,0,0,3.119-2.518l1.86-4.192a3.891,3.891,0,0,1,3.748-2.277.4.4,0,0,1,.347.565l-8.019,18.021c-1.422,2.972-3.618,3.356-3.7,3.369a.913.913,0,0,0-.787.9v3.922H151.83V41.721a.913.913,0,0,0-.373-.736,10.917,10.917,0,0,1-4.449-8.766V21.11a.913.913,0,0,0-1.825,0V32.219A12.751,12.751,0,0,0,150,42.173V45.86a2.152,2.152,0,0,0-1.21,1.933v2.58a2.153,2.153,0,0,0-1.962,2.143v8.85a.913.913,0,1,0,1.825,0v-8.85a.325.325,0,0,1,.323-.326h8.481a.913.913,0,0,0,0-1.825H150.62V47.793a.325.325,0,0,1,.325-.324h12.109a.325.325,0,0,1,.324.324v2.572h-1.09a.913.913,0,0,0,0,1.825h2.728a.325.325,0,0,1,.323.326v8.85a.913.913,0,0,0,1.825,0v-8.85a2.153,2.153,0,0,0-1.962-2.143v-2.58a2.153,2.153,0,0,0-1.26-1.957V42.413a7.911,7.911,0,0,0,4.326-4.212l8.024-18.032a2.26,2.26,0,0,0-1.926-3.131Z" transform="translate(-88.955 0)" fill="url(#linear-gradient)"/>
    <path id="Path_56699" data-name="Path 56699" d="M64.785,118.148,67,119.424a.945.945,0,0,0,1.247-.335.913.913,0,0,0-.335-1.246L65.7,116.566A.913.913,0,0,0,64.785,118.148Z" transform="translate(-17.938 -102.272)" fill="url(#linear-gradient)"/>
    <path id="Path_56700" data-name="Path 56700" d="M48.276,197.3a.913.913,0,0,0-.914-.911l-2.556,0a.913.913,0,0,0,0,1.825l2.556,0A.913.913,0,0,0,48.276,197.3Z" transform="translate(0 -172.494)" fill="url(#linear-gradient)"/>
    <path id="Path_56701" data-name="Path 56701" d="M68.67,265.406l-2.214,1.282a.913.913,0,0,0-.332,1.247.945.945,0,0,0,1.247.332l2.213-1.282A.913.913,0,0,0,68.67,265.406Z" transform="translate(-19.409 -233)" fill="url(#linear-gradient)"/>
    <path id="Path_56702" data-name="Path 56702" d="M417.876,266.761l-2.213-1.276a.913.913,0,1,0-.912,1.581l2.213,1.276A.913.913,0,0,0,417.876,266.761Z" transform="translate(-325.32 -233.073)" fill="url(#linear-gradient)"/>
    <path id="Path_56703" data-name="Path 56703" d="M435.445,195.9l-2.557,0a.913.913,0,0,0,0,1.825l2.556,0A.913.913,0,0,0,435.445,195.9Z" transform="translate(-340.851 -172.061)" fill="url(#linear-gradient)"/>
  </g>
</svg>
