<svg xmlns="http://www.w3.org/2000/svg" xmlns:xlink="http://www.w3.org/1999/xlink" width="62.665" height="62.281" viewBox="0 0 62.665 62.281">
  <defs>
    <linearGradient id="linear-gradient" y1="0.5" x2="1.186" y2="0.5" gradientUnits="objectBoundingBox">
      <stop offset="0" stop-color="#017"/>
      <stop offset="1" stop-color="#02a2fd"/>
    </linearGradient>
  </defs>
  <path id="inclusion" d="M87.994,67.341a4.984,4.984,0,0,0-6.791-1.82l-12.648,7.3a4.981,4.981,0,0,0-3.683-4.65L46.64,63.289a7.452,7.452,0,0,0-5.844.769l-4.638,2.678-.551-.955a.681.681,0,0,0-.93-.249l-8.342,4.817a.681.681,0,0,0-.249.93l10.43,18.065a.681.681,0,0,0,.93.249l8.342-4.816a.681.681,0,0,0,.249-.93l-.71-1.229,2.482-1.433L64.893,84.75a5.02,5.02,0,0,0,1.283.167,4.924,4.924,0,0,0,2.469-.664L86.175,74.132a4.984,4.984,0,0,0,1.82-6.791ZM37.354,88.073,27.605,71.188l7.162-4.135,9.749,16.886ZM87.17,70.76a3.583,3.583,0,0,1-1.677,2.193L67.964,83.073a3.584,3.584,0,0,1-2.738.356l-.037-.009L47.833,79.8a.68.68,0,0,0-.48.077l-2.707,1.563L36.839,67.916l4.638-2.678a6.134,6.134,0,0,1,4.81-.633L64.52,69.49a3.609,3.609,0,0,1-1.868,6.973l-9.515-2.55a.681.681,0,1,0-.353,1.316l9.515,2.55a4.968,4.968,0,0,0,6-3.236L81.884,66.7A3.6,3.6,0,0,1,87.17,70.76ZM38.536,50.721v7.628a2.649,2.649,0,0,0,4.619,1.772,2.649,2.649,0,0,0,4.619-1.772V50.721a3.369,3.369,0,0,0,2.47-3.233v-5.91a3.355,3.355,0,0,0-3.351-3.351h-.96a3.521,3.521,0,1,0-5.557,0h-.96a3.355,3.355,0,0,0-3.351,3.351v5.91A3.369,3.369,0,0,0,38.536,50.721ZM41,36.069a2.158,2.158,0,1,1,2.158,2.158A2.161,2.161,0,0,1,41,36.069Zm-3.569,5.51a1.991,1.991,0,0,1,1.989-1.989h7.476a1.991,1.991,0,0,1,1.989,1.989v5.91a2,2,0,0,1-1.108,1.781V42.911a.681.681,0,0,0-1.362,0v7.239h0v8.2a1.288,1.288,0,0,1-2.576,0V51.5a.681.681,0,1,0-1.362,0V58.35a1.288,1.288,0,0,1-2.576,0V42.911a.681.681,0,1,0-1.362,0V49.27a2,2,0,0,1-1.108-1.781Zm17.678,8.064v8.5a2.859,2.859,0,0,0,5.039,1.851,2.859,2.859,0,0,0,5.039-1.851v-8.5a3.655,3.655,0,0,0,2.733-3.522v-6.54a3.64,3.64,0,0,0-3.636-3.636H63.069a3.823,3.823,0,1,0-5.845,0H56.009a3.64,3.64,0,0,0-3.636,3.636v6.54A3.655,3.655,0,0,0,55.107,49.643Zm2.578-16.159a2.461,2.461,0,1,1,2.461,2.461A2.464,2.464,0,0,1,57.685,33.484Zm-3.949,6.1a2.276,2.276,0,0,1,2.274-2.274h8.273a2.276,2.276,0,0,1,2.274,2.274v6.54A2.283,2.283,0,0,1,65.185,48.2V41.055a.681.681,0,1,0-1.362,0V58.139a1.5,1.5,0,0,1-3,0V50.561a.681.681,0,1,0-1.362,0v7.578a1.5,1.5,0,0,1-3,0V41.055a.681.681,0,0,0-1.362,0V48.2a2.283,2.283,0,0,1-1.371-2.083ZM72.681,48.8v9.176a3.023,3.023,0,0,0,5.367,1.91,3.023,3.023,0,0,0,5.367-1.91V48.8a3.879,3.879,0,0,0,2.939-3.747V38.02A3.863,3.863,0,0,0,82.5,34.161H81.078a4.06,4.06,0,1,0-6.061,0H73.6a3.863,3.863,0,0,0-3.858,3.858v7.032A3.879,3.879,0,0,0,72.681,48.8Zm2.67-17.335a2.7,2.7,0,1,1,2.7,2.7A2.7,2.7,0,0,1,75.35,31.464ZM71.1,38.02a2.5,2.5,0,0,1,2.5-2.5h8.9a2.5,2.5,0,0,1,2.5,2.5v7.032a2.508,2.508,0,0,1-1.577,2.318V39.606a.681.681,0,1,0-1.362,0v18.37a1.662,1.662,0,0,1-3.324,0V49.827a.681.681,0,1,0-1.362,0v8.149a1.662,1.662,0,0,1-3.324,0V39.606a.681.681,0,1,0-1.362,0V47.37A2.508,2.508,0,0,1,71.1,45.052V38.02Z" transform="translate(-25.994 -27.404)" fill="url(#linear-gradient)"/>
</svg>
