<svg xmlns="http://www.w3.org/2000/svg" xmlns:xlink="http://www.w3.org/1999/xlink" width="63.917" height="62.28" viewBox="0 0 63.917 62.28">
  <defs>
    <linearGradient id="linear-gradient" x1="-0.096" y1="0.588" x2="1.048" y2="0.7" gradientUnits="objectBoundingBox">
      <stop offset="0" stop-color="#017"/>
      <stop offset="1" stop-color="#02a2fd"/>
    </linearGradient>
  </defs>
  <path id="leadership" d="M63.911,61.161A12.432,12.432,0,0,0,55.55,50.7a6.8,6.8,0,1,0-8.069,0,12.427,12.427,0,0,0-3.827,2.125,12.314,12.314,0,0,0-3.441-1.377,34.908,34.908,0,0,0-6.64-.993c2.806-.912,4.885-4.14,4.885-7.972,0-4.147-2.491-6.724-6.5-6.724s-6.5,2.576-6.5,6.724c0,3.823,2.07,7.046,4.866,7.966a32.83,32.83,0,0,0-6.629,1,12.834,12.834,0,0,0-3.429,1.378,12.426,12.426,0,0,0-3.83-2.128,6.8,6.8,0,1,0-8.069,0A12.433,12.433,0,0,0,.005,61.161,1,1,0,0,0,1,62.266H17.051v5.571a1,1,0,0,0,1,1H45.865a1,1,0,0,0,1-1V62.266H62.917a1,1,0,0,0,.993-1.1Zm-17.2-15.93a4.8,4.8,0,1,1,4.8,4.8h0a4.806,4.806,0,0,1-4.8-4.8ZM34.587,59.875l-2.63,2.753-2.63-2.753,2.016-7.461q.613-.011,1.228,0ZM27.455,42.482c0-4.112,2.821-4.726,4.5-4.726s4.5.614,4.5,4.726c0,3.436-2.02,6.232-4.5,6.232S27.455,45.919,27.455,42.482ZM7.6,45.231a4.8,4.8,0,1,1,4.8,4.8h0a4.806,4.806,0,0,1-4.8-4.8ZM2.169,60.268A10.446,10.446,0,0,1,12.4,52.029h.005A10.431,10.431,0,0,1,18.65,54.1a5.556,5.556,0,0,0-1.6,3.948v2.221H2.169Zm42.7,6.57H19.049V58.048c0-2.761,2.8-4.06,5.143-4.663a30.881,30.881,0,0,1,5.054-.862L27.253,59.9a1,1,0,0,0,.242.95l3.741,3.916a1,1,0,0,0,1.444,0l3.741-3.916a1,1,0,0,0,.242-.95l-1.99-7.364a33.219,33.219,0,0,1,5.06.853c1.918.476,5.135,1.714,5.135,4.661Zm2-6.57V58.048a5.6,5.6,0,0,0-1.6-3.944,10.433,10.433,0,0,1,6.25-2.074h.005a10.446,10.446,0,0,1,10.231,8.239H46.864ZM21.774,22.239a1.426,1.426,0,0,0,.467,1.565l4.342,3.49L25.122,32.67a1.436,1.436,0,0,0,2.175,1.58L31.958,31.2l4.661,3.051a1.438,1.438,0,0,0,2.175-1.58l-1.462-5.376,4.342-3.49a1.438,1.438,0,0,0-.83-2.557l-5.565-.271L33.3,15.768a1.438,1.438,0,0,0-2.688,0l-1.978,5.209-5.564.271a1.427,1.427,0,0,0-1.3.992Zm7.325.714a1.438,1.438,0,0,0,1.274-.926l1.584-4.173,1.584,4.173a1.437,1.437,0,0,0,1.274.926l4.458.217-3.479,2.8a1.438,1.438,0,0,0-.486,1.5l1.171,4.307-3.735-2.445a1.437,1.437,0,0,0-1.575,0l-3.735,2.445,1.171-4.307a1.438,1.438,0,0,0-.487-1.5l-3.479-2.8Zm1.86-11.561V7.555a1,1,0,1,1,2,0v3.838a1,1,0,1,1-2,0Zm6.357,6.165a1,1,0,0,1,.074-1.411L41.666,12.3A1,1,0,0,1,43,13.78l-4.277,3.851a1,1,0,0,1-1.41-.074ZM20.839,12.369a1,1,0,0,1,1.41-.074l4.277,3.851a1,1,0,1,1-1.337,1.484L20.913,13.78A1,1,0,0,1,20.839,12.369Z" transform="translate(0.001 -6.556)" fill="url(#linear-gradient)"/>
</svg>
