<svg xmlns="http://www.w3.org/2000/svg" xmlns:xlink="http://www.w3.org/1999/xlink" width="195" height="42" viewBox="0 0 195 42">
  <defs>
    <clipPath id="clip-path">
      <rect id="Rectangle_8844" data-name="Rectangle 8844" width="195" height="42" transform="translate(-0.232 -0.229)" fill="none"/>
    </clipPath>
  </defs>
  <g id="Group_25692" data-name="Group 25692" transform="translate(0.232 0.229)" clip-path="url(#clip-path)">
    <path id="Path_45289" data-name="Path 45289" d="M0,0H19.762q0,9.881,0,19.762H0Z" fill="#909090"/>
    <path id="Path_45291" data-name="Path 45291" d="M183.5,0H203.26q0,9.881,0,19.762-9.879,0-19.76,0,0-9.881,0-19.762" transform="translate(-161.718)" fill="#909090"/>
    <path id="Path_45292" data-name="Path 45292" d="M1459.367,55.564a7.756,7.756,0,0,1,6.229-.731c.018,1.22,0,2.441.008,3.663a4.074,4.074,0,0,0-3.15-.288,2.5,2.5,0,0,0-1.426,1.994,26.9,26.9,0,0,0-.079,3.2c2.084,0,4.168,0,6.253,0,.015-1.353-.017-2.707.018-4.06,1.417-.4,2.819-.856,4.229-1.281.012,1.783-.017,3.567.016,5.351,1.409-.02,2.819,0,4.229-.009v3.471c-1.415-.058-2.831-.015-4.245-.02.006,2,0,3.99,0,5.987.023,1.105-.059,2.216.07,3.317a2.15,2.15,0,0,0,.923,1.7,3.184,3.184,0,0,0,3.25-.305v3.5a8.356,8.356,0,0,1-3.907.6,4.752,4.752,0,0,1-3.37-1.545,6.38,6.38,0,0,1-1.207-4.078c-.011-3.062,0-6.124,0-9.188q-3.128,0-6.255,0,0,7.209,0,14.417h-4.274q0-7.207,0-14.413c-.991-.019-1.983,0-2.974-.015,0-1.141.008-2.282,0-3.424.986-.023,1.974-.013,2.963-.006a18.221,18.221,0,0,1,.294-4.555,5.829,5.829,0,0,1,2.411-3.29" transform="translate(-1281.158 -48.034)" fill="#909090"/>
    <path id="Path_45293" data-name="Path 45293" d="M714.363,65.315a2.614,2.614,0,0,1,2.366.838,2.437,2.437,0,0,1,.3,2.776,2.659,2.659,0,0,1-2.845,1.192A2.417,2.417,0,0,1,712.2,67.74a2.474,2.474,0,0,1,2.167-2.425" transform="translate(-627.662 -57.536)" fill="#909090"/>
    <path id="Path_45294" data-name="Path 45294" d="M454.49,69.982h6.216q2.9,7.369,5.821,14.733c.495,1.228.958,2.471,1.477,3.69,2.489-6.139,5.014-12.262,7.483-18.409,1.993-.032,3.987-.007,5.981-.012q-.007,12.461,0,24.922c-1.439,0-2.876.012-4.313-.008.015-6.13,0-12.261.007-18.392,0-.275-.007-.551-.026-.826a3.291,3.291,0,0,0-.224.4c-2.47,6.275-4.987,12.533-7.443,18.814-1.023.037-2.047,0-3.072.019-2.548-6.275-5.065-12.565-7.6-18.845-.066-.131-.138-.258-.215-.38-.052,2.686-.008,5.374-.023,8.06q0,5.58,0,11.159c-1.357,0-2.713,0-4.069,0q0-12.463,0-24.925" transform="translate(-400.545 -61.674)" fill="#909090"/>
    <path id="Path_45295" data-name="Path 45295" d="M781.707,126.161a11.7,11.7,0,0,1,6.349.019,5.122,5.122,0,0,1,1.219.508c-.024,1.361,0,2.724-.013,4.087a6.79,6.79,0,0,0-4.878-1.5,5.019,5.019,0,0,0-3.55,1.971,6.894,6.894,0,0,0-1.132,4.948,5.356,5.356,0,0,0,1.727,3.551,5.412,5.412,0,0,0,4,1.19,8.143,8.143,0,0,0,3.835-1.574c.012,1.29-.006,2.58.01,3.871a10.394,10.394,0,0,1-5.842,1.209,8.663,8.663,0,0,1-5.568-2.322,8.9,8.9,0,0,1-2.586-5.98,10.827,10.827,0,0,1,1.69-6.631,8.6,8.6,0,0,1,4.742-3.349" transform="translate(-683.245 -110.808)" fill="#909090"/>
    <path id="Path_45296" data-name="Path 45296" d="M1016.886,125.846a11.341,11.341,0,0,1,6.119.722,7.559,7.559,0,0,1,3.733,3.773,11.719,11.719,0,0,1,.85,5.634,9.474,9.474,0,0,1-1.879,5.2,8.272,8.272,0,0,1-4.907,3.028,12.275,12.275,0,0,1-5,0,8.093,8.093,0,0,1-4.938-3.22,10.254,10.254,0,0,1-1.565-6.672,9.521,9.521,0,0,1,1.973-5.459,8.529,8.529,0,0,1,5.619-3" transform="translate(-889.466 -110.801)" fill="#909090"/>
    <path id="Path_45297" data-name="Path 45297" d="M1185.515,125.915a11.306,11.306,0,0,1,5.916.616c0,1.31,0,2.62,0,3.929a7.532,7.532,0,0,0-4.489-1.326,2.3,2.3,0,0,0-2.042,1.129,1.846,1.846,0,0,0,.62,2.186c1.212.811,2.657,1.155,3.913,1.881a5.628,5.628,0,0,1,2.449,2.329,5.213,5.213,0,0,1-1.112,6.014,8.176,8.176,0,0,1-5.948,1.806,12.709,12.709,0,0,1-4.345-1c.006-1.378-.008-2.755.007-4.132a9.347,9.347,0,0,0,3.878,1.674,4.991,4.991,0,0,0,2.95-.271,1.707,1.707,0,0,0,.51-2.428,5.137,5.137,0,0,0-1.866-1.221,17.88,17.88,0,0,1-3.689-1.888,4.422,4.422,0,0,1-1.6-2.425,5.449,5.449,0,0,1,.591-4.263,6.364,6.364,0,0,1,4.253-2.612" transform="translate(-1040.365 -110.834)" fill="#909090"/>
    <path id="Path_45298" data-name="Path 45298" d="M1303.576,125.842a11.07,11.07,0,0,1,6.344.862,7.626,7.626,0,0,1,3.671,4.155,11.387,11.387,0,0,1,.665,4.266,9.773,9.773,0,0,1-1.933,6.084,8.348,8.348,0,0,1-5.254,3.072,11.493,11.493,0,0,1-6.02-.509,7.921,7.921,0,0,1-4.342-4.212,11.828,11.828,0,0,1-.672-6.205,8.751,8.751,0,0,1,2.819-5.486,8.849,8.849,0,0,1,4.723-2.026" transform="translate(-1142.09 -110.803)" fill="#909090"/>
    <path id="Path_45299" data-name="Path 45299" d="M926.145,127.283a4.821,4.821,0,0,1,3.967-.335c-.006,1.425,0,2.851,0,4.276a4.543,4.543,0,0,0-2.889-.679,3.549,3.549,0,0,0-2.673,2.138,7.9,7.9,0,0,0-.609,3.647q0,4.271,0,8.542h-4.214q-.005-8.927,0-17.855c1.406-.018,2.813-.011,4.219,0-.006,1.022,0,2.044,0,3.067a5.473,5.473,0,0,1,2.209-2.8" transform="translate(-810.557 -111.639)" fill="#909090"/>
    <path id="Path_45300" data-name="Path 45300" d="M715.48,129.473c1.417-.006,2.836-.02,4.253.007-.017,5.95,0,11.9-.007,17.851h-4.243q-.005-8.929,0-17.858" transform="translate(-630.559 -114.098)" fill="#909090"/>
    <path id="Path_45301" data-name="Path 45301" d="M1050.731,155.252a4.6,4.6,0,0,1,3.575,1.213,5.766,5.766,0,0,1,1.475,3.723,9.361,9.361,0,0,1-.6,4.365,3.9,3.9,0,0,1-2.1,2.063,5.763,5.763,0,0,1-3.484.153,4.266,4.266,0,0,1-2.679-2.21,8.245,8.245,0,0,1-.649-4.471,5.68,5.68,0,0,1,1.651-3.727,4.47,4.47,0,0,1,2.812-1.11" transform="translate(-922.036 -136.815)" fill="#fefefe"/>
    <path id="Path_45302" data-name="Path 45302" d="M1337.233,155.263a4.687,4.687,0,0,1,3.424,1.01,4.9,4.9,0,0,1,1.547,2.844,10.852,10.852,0,0,1,.036,3.817,5.568,5.568,0,0,1-1.1,2.622,4,4,0,0,1-2.5,1.344,5.65,5.65,0,0,1-3.058-.332,4.332,4.332,0,0,1-2.254-2.358,8.483,8.483,0,0,1-.507-3.892,6.176,6.176,0,0,1,1.295-3.557,4.373,4.373,0,0,1,3.119-1.5" transform="translate(-1174.594 -136.822)" fill="#fefefe"/>
    <path id="Path_45303" data-name="Path 45303" d="M1603.209,158.48c1.415,0,2.831-.038,4.245.02v10.683a3.184,3.184,0,0,1-3.25.305,2.15,2.15,0,0,1-.923-1.7c-.129-1.1-.047-2.212-.07-3.317,0-2,0-3.992,0-5.987" transform="translate(-1412.92 -139.661)" fill="#fefefe"/>
    <path id="Path_45304" data-name="Path 45304" d="M0,183.49q9.881,0,19.762,0,0,9.881,0,19.761H0Z" transform="translate(0 -161.711)" fill="#909090"/>
    <path id="Path_45305" data-name="Path 45305" d="M183.5,183.5q9.879,0,19.761,0V203.26H183.5q0-9.881,0-19.761" transform="translate(-161.72 -161.718)" fill="#909090"/>
  </g>
</svg>
