<svg xmlns="http://www.w3.org/2000/svg" xmlns:xlink="http://www.w3.org/1999/xlink" width="81.407" height="53.6" viewBox="0 0 81.407 53.6">
  <defs>
    <linearGradient id="linear-gradient" y1="0.44" x2="1.047" y2="0.649" gradientUnits="objectBoundingBox">
      <stop offset="0" stop-color="#017"/>
      <stop offset="1" stop-color="#02a2fd"/>
    </linearGradient>
  </defs>
  <g id="passionate" transform="translate(0 -87.425)">
    <g id="Group_27232" data-name="Group 27232" transform="translate(0 87.425)">
      <path id="Path_56696" data-name="Path 56696" d="M80.45,121.5a5.965,5.965,0,0,0-7.084-2.374,4.544,4.544,0,0,0-3.618-5.37,26.341,26.341,0,0,0,1.585-3.976,1.223,1.223,0,0,0-.643-1.483,1.193,1.193,0,0,0-1.626.746,29.738,29.738,0,0,1-11.98,15.478l-1.955.646a5.126,5.126,0,0,0,.114-.692,5,5,0,0,0-4.277-5.419c-4.409-.622-8.826-1.707-13.184-2.6a47.538,47.538,0,0,0-7.407-1.231,7.864,7.864,0,0,0-3.109.931c-.109-.158-.218-.316-.323-.475a23.138,23.138,0,0,1-4.059-13,13.062,13.062,0,0,1,5.324-10.325,12.5,12.5,0,0,1,7.541-2.545c4.607,0,8.081,2.992,9.532,8.208a1.193,1.193,0,0,0,1.31.862,1.225,1.225,0,0,0,1-.894c1.456-5.2,4.926-8.177,9.523-8.177a12.5,12.5,0,0,1,7.541,2.545,13.064,13.064,0,0,1,5.324,10.325c.006.385,0,.776-.016,1.16a1.222,1.222,0,0,0,.971,1.27,1.194,1.194,0,0,0,1.41-1.119c.02-.446.027-.9.02-1.347A15.4,15.4,0,0,0,66.1,90.459a14.9,14.9,0,0,0-8.988-3.034,11.641,11.641,0,0,0-10.681,6.92,11.641,11.641,0,0,0-10.681-6.92,14.9,14.9,0,0,0-8.988,3.034A15.4,15.4,0,0,0,20.5,102.644a25.505,25.505,0,0,0,4.45,14.344c.093.142.19.283.287.423-.3.207-.585.416-.867.621a10.176,10.176,0,0,1-5.246,2.042c-.559.022-5.286-.345-5.286-.91v-.926a3.643,3.643,0,0,0-3.643-3.643H3.643A3.643,3.643,0,0,0,0,118.238v1.827a1.226,1.226,0,0,0,1.156,1.242,1.193,1.193,0,0,0,1.229-1.192v-1.877a1.258,1.258,0,0,1,1.258-1.258h6.551a1.257,1.257,0,0,1,1.257,1.257v19.144a1.258,1.258,0,0,1-1.258,1.258H3.643a1.257,1.257,0,0,1-1.257-1.257V125.764a1.226,1.226,0,0,0-1.156-1.242A1.192,1.192,0,0,0,0,125.714v11.668a3.643,3.643,0,0,0,3.643,3.643h6.551a3.643,3.643,0,0,0,3.643-3.643v-1.516l8.5-.5.032,0a12.841,12.841,0,0,1,5.493.74l9.206,3.391a15.492,15.492,0,0,0,5.422.964c3.729,0,7.239-1.253,10.67-2.477.781-.279,1.588-.567,2.384-.835,3.5-1.181,7.12-2.254,10.616-3.293,3.873-1.15,11.868-3.722,11.913-3.744a5.358,5.358,0,0,0,3.12-3.774,5.991,5.991,0,0,0-.741-4.84Zm-12-5.387a2.162,2.162,0,0,1,1.125,4.17L63.437,122.4A33.161,33.161,0,0,0,68.448,116.113Zm10.444,9.592a3.5,3.5,0,0,1-2.323,2.413c-3.664,1.248-7.436,2.368-11.089,3.453-3.517,1.044-7.153,2.124-10.7,3.319-.816.275-1.634.567-2.424.849-4.856,1.733-9.443,3.371-14.466,1.521l-9.206-3.39a15.248,15.248,0,0,0-5.249-.932q-.629,0-1.255.053l-8.344.487V121.662c3.5,1.033,7.409,1.518,11.307-1.249,1.6-1.135,3.334-2.679,5.383-2.81.751-.048,5.125.849,6.773,1.187,4.4.9,8.826,1.744,13.239,2.612.028.006.056.01.085.013,3.316.389,2.679,5.629-.7,5.178l-.032,0L39.35,125.473a1.194,1.194,0,0,0-1.318,1.216,1.22,1.22,0,0,0,1.108,1.161l10.482,1.112a4.98,4.98,0,0,0,2.1-.172c.06-.01,22.241-7.334,22.276-7.348a3.6,3.6,0,0,1,4.894,4.264Z" transform="translate(0 -87.425)" fill="url(#linear-gradient)"/>
    </g>
  </g>
</svg>
